# xmcd
#
# Track frame offsets:
#	150
#	19481
#	35137
#	55095
#	75262
#	93182
#	106836
#	122841
#	137836
#	154659
#	171865
#	187783
#	201924
#	216292
#	235780
#	253631
#	270524
#	287278
#	300775
#	315926
#	330694
#	348127
#
# Disc length: 4767 seconds
#
# Revision: 0
# Processed by: cddbd v1.5.2PL0 Copyright (c) Steve Scherf et al.
# Submitted via: EZCDAudioConverter 4.0.5.1
#
DISCID=1e129d16
DTITLE=Vários - Explosão Sertaneja 009
DYEAR=2004
DGENRE=Sertanejo
TTITLE0=Cleiton and Camargo - Olha Pra Mim
TTITLE1=Marlon and Maicon - Você Nasceu Pra Mim
TTITLE2=Chitãozinho and Xororó - Página Virada
TTITLE3=Sérgio Reis - Pinga Ne Mim
TTITLE4=Sérgio Reis - Filho Adotivo
TTITLE5=Teodoro and Sampaio - Mulher Chorona
TTITLE6=Maurício and Maury - Paixão ou Loucura
TTITLE7=Tonico and Tinoco - Chico Mineiro
TTITLE8=Roberto Leal - É Tão Linda a Mnha Aldeia
TTITLE9=Chrystian and Ralf - Minha Gioconda (Mia Gioconda)
TTITLE10=Edson and Hudson - Porta-Retrato
TTITLE11=As Marcianas - Porque Brigamos (I Am...I Said)
TTITLE12=Milionário and José Rico - Herança
TTITLE13=Rionegro and Solimões - Frio da Madrugada
TTITLE14=Zezé Di Camargo and Luciano - Você Vai Ver
TTITLE15=Ataíde and Alexandre - Você Marcou Prá Mim
TTITLE16=João Paulo and Daniel - Porque Fui Te Amar Assim
TTITLE17=Leandro and Leonardo - Mais Uma Noite Sem Você
TTITLE18=Rick and Renner - Cachaça
TTITLE19=Chico Rey and Paraná - O Que Mata É a Solidão
TTITLE20=André and Adriano - Mordida de Amor (Love Bites)
TTITLE21=Milionário and José Rico - Estrada da Vida
EXTD=
EXTT0=
EXTT1=
EXTT2=
EXTT3=
EXTT4=
EXTT5=
EXTT6=
EXTT7=
EXTT8=
EXTT9=
EXTT10=
EXTT11=
EXTT12=
EXTT13=
EXTT14=
EXTT15=
EXTT16=
EXTT17=
EXTT18=
EXTT19=
EXTT20=
EXTT21=
PLAYORDER=
